<svg xmlns="http://www.w3.org/2000/svg" xmlns:xlink="http://www.w3.org/1999/xlink" width="11.44384765625" height="13.199951171875" viewBox="0 0 11.44384765625 13.199951171875" fill="none"><path id="Fill 152" fill-rule="evenodd" style="fill:#ffffff" opacity="1" d="M6.63 12.83C6.88 12.58 7 12.28 7 11.91L7 2.57L10.15 2.57C10.51 2.57 10.82 2.44 11.07 2.19C11.32 1.94 11.44 1.64 11.44 1.28C11.44 0.92 11.32 0.62 11.07 0.37C10.82 0.12 10.51 0 10.15 0L1.27 0C0.92 0 0.62 0.12 0.37 0.37C0.12 0.61 0 0.91 0 1.27C0 1.63 0.12 1.94 0.37 2.19C0.62 2.44 0.92 2.57 1.27 2.57L4.44 2.57L4.44 11.91C4.44 12.28 4.56 12.58 4.8 12.83C5.05 13.08 5.35 13.2 5.71 13.2C6.07 13.2 6.38 13.08 6.63 12.83Z"></path></svg>