<svg xmlns="http://www.w3.org/2000/svg" xmlns:xlink="http://www.w3.org/1999/xlink" width="11.639892578125" height="11.639892578125" viewBox="0 0 11.639892578125 11.639892578125" fill="none"><path id="路径" fill-rule="evenodd" style="fill:#6C6C6C" opacity="1" d="M5.82 11.64C6.05 11.64 6.25 11.56 6.41 11.4C6.57 11.24 6.65 11.04 6.65 10.81L6.65 6.65L10.81 6.65C11.04 6.65 11.24 6.57 11.4 6.41C11.56 6.25 11.64 6.05 11.64 5.82C11.64 5.58 11.56 5.39 11.4 5.23C11.24 5.07 11.04 4.99 10.81 4.99L6.65 4.99L6.65 0.83C6.65 0.6 6.57 0.4 6.41 0.24C6.25 0.08 6.05 0 5.82 0C5.58 0 5.39 0.08 5.23 0.24C5.07 0.4 4.99 0.6 4.99 0.83L4.99 4.99L0.83 4.99C0.59 4.99 0.4 5.07 0.24 5.23C0.08 5.39 0 5.58 0 5.82C0 6.05 0.08 6.25 0.24 6.41C0.4 6.57 0.59 6.65 0.83 6.65L4.99 6.65L4.99 10.81C4.99 11.04 5.07 11.24 5.23 11.4C5.39 11.56 5.58 11.64 5.82 11.64Z"></path></svg>