<svg width="12" height="12" viewBox="0 0 12 12" fill="none" xmlns="http://www.w3.org/2000/svg">
<g clip-path="url(#clip0_1847_3140)">
<path fill-rule="evenodd" clip-rule="evenodd" d="M11 1C11 0.349433 10.3886 -0.127925 9.75746 0.0298618L3.75746 1.52986C3.3123 1.64115 3 2.04114 3 2.5V7.99999C1.89543 7.99999 1 8.89542 1 9.99999C1 11.1046 1.89543 12 3 12C4.10457 12 5 11.1046 5 9.99999V3.28078L9 2.28078V6.49999C7.89543 6.49999 7 7.39542 7 8.49999C7 9.60456 7.89543 10.5 9 10.5C10.1046 10.5 11 9.60456 11 8.49999V1Z" fill="#1ED760"/>
</g>
<defs>
<clipPath id="clip0_1847_3140">
<rect width="12" height="12" fill="white"/>
</clipPath>
</defs>
</svg>
